# xmcd
#
# Track frame offsets:
#	202
#	23927
#	49427
#	69020
#	93292
#	108790
#	127897
#	147102
#	163137
#
# Disc length: 2428 seconds
# Revision: 0
# Processed by: cddbd v1.5.2PL0 Copyright (c) Steve Scherf et al.
# Submitted via: dBpowerAMP V12.0
#
DISCID=6f097a09
DTITLE=Trudy Lynn - The Woman in me
DYEAR=1991
DGENRE=Soul
TTITLE0=The Woman in me
TTITLE1=My Baby Can
TTITLE2=Speak Now (or Forever Hold Your Peace)
TTITLE3=You Owe it to Youself
TTITLE4=Can't Nothin' Keep me From You
TTITLE5=Still on my Mind
TTITLE6=I've Been Thinkin'
TTITLE7=Feel You, Feel me
TTITLE8=Spare The Rod (Love The Child)
EXTD=
EXTT0=
EXTT1=
EXTT2=
EXTT3=
EXTT4=
EXTT5=
EXTT6=
EXTT7=
EXTT8=
PLAYORDER=
